<mxfile host="65bd71144e">
    <diagram name="Page-1" id="RZhaLbTsVMuB2iHNjV70">
        <mxGraphModel dx="4858" dy="3352" grid="1" gridSize="10" guides="1" tooltips="1" connect="1" arrows="1" fold="1" page="1" pageScale="1" pageWidth="850" pageHeight="1100" math="0" shadow="0">
            <root>
                <mxCell id="0"/>
                <mxCell id="1" parent="0"/>
                <mxCell id="2" value="" style="rounded=0;whiteSpace=wrap;html=1;fillColor=none;" vertex="1" parent="1">
                    <mxGeometry x="-400" y="-330" width="1720" height="1690" as="geometry"/>
                </mxCell>
                <mxCell id="C2yQ0-Pam9OfuR78FbxI-1" value="Authenticated User&amp;nbsp;" style="rounded=0;whiteSpace=wrap;html=1;fillColor=none;fontSize=17;" parent="1" vertex="1">
                    <mxGeometry x="340" y="437" width="120" height="60" as="geometry"/>
                </mxCell>
                <mxCell id="C2yQ0-Pam9OfuR78FbxI-2" value="Public URL" style="rounded=0;whiteSpace=wrap;html=1;fillColor=none;fontSize=17;" parent="1" vertex="1">
                    <mxGeometry x="-150" y="274" width="120" height="60" as="geometry"/>
                </mxCell>
                <mxCell id="C2yQ0-Pam9OfuR78FbxI-3" value="Private URL" style="rounded=0;whiteSpace=wrap;html=1;fillColor=none;fontSize=17;" parent="1" vertex="1">
                    <mxGeometry x="875" y="287" width="120" height="60" as="geometry"/>
                </mxCell>
                <mxCell id="C2yQ0-Pam9OfuR78FbxI-4" value="Custom Logs" style="rounded=0;whiteSpace=wrap;html=1;fillColor=none;fontSize=17;" parent="1" vertex="1">
                    <mxGeometry x="340" y="1094" width="120" height="60" as="geometry"/>
                </mxCell>
                <mxCell id="C2yQ0-Pam9OfuR78FbxI-5" value="Custom URL" style="rounded=0;whiteSpace=wrap;html=1;fillColor=none;fontSize=17;" parent="1" vertex="1">
                    <mxGeometry x="340" y="787" width="120" height="60" as="geometry"/>
                </mxCell>
                <mxCell id="C2yQ0-Pam9OfuR78FbxI-6" value="Public Logs" style="rounded=0;whiteSpace=wrap;html=1;fillColor=none;fontSize=17;" parent="1" vertex="1">
                    <mxGeometry x="-150" y="-76" width="120" height="60" as="geometry"/>
                </mxCell>
                <mxCell id="C2yQ0-Pam9OfuR78FbxI-7" value="Private Logs" style="rounded=0;whiteSpace=wrap;html=1;fillColor=none;fontSize=17;" parent="1" vertex="1">
                    <mxGeometry x="875" y="-63" width="120" height="60" as="geometry"/>
                </mxCell>
                <mxCell id="C2yQ0-Pam9OfuR78FbxI-8" value="Created_at&amp;nbsp;" style="ellipse;whiteSpace=wrap;html=1;fontSize=16;fillColor=none;" parent="1" vertex="1">
                    <mxGeometry x="-340" y="154" width="100" height="50" as="geometry"/>
                </mxCell>
                <mxCell id="C2yQ0-Pam9OfuR78FbxI-9" value="Clicks" style="ellipse;whiteSpace=wrap;html=1;fontSize=16;fillColor=none;" parent="1" vertex="1">
                    <mxGeometry x="-360" y="224" width="100" height="50" as="geometry"/>
                </mxCell>
                <mxCell id="C2yQ0-Pam9OfuR78FbxI-11" value="Created at&amp;nbsp;" style="ellipse;whiteSpace=wrap;html=1;fontSize=16;fillColor=none;" parent="1" vertex="1">
                    <mxGeometry x="1155" y="157" width="100" height="50" as="geometry"/>
                </mxCell>
                <mxCell id="C2yQ0-Pam9OfuR78FbxI-12" value="Long_URL" style="ellipse;whiteSpace=wrap;html=1;fontSize=16;fillColor=none;" parent="1" vertex="1">
                    <mxGeometry x="-180" y="467" width="100" height="50" as="geometry"/>
                </mxCell>
                <mxCell id="C2yQ0-Pam9OfuR78FbxI-13" value="Short_URL" style="ellipse;whiteSpace=wrap;html=1;fontSize=16;fillColor=none;" parent="1" vertex="1">
                    <mxGeometry x="-250" y="420" width="100" height="50" as="geometry"/>
                </mxCell>
                <mxCell id="C2yQ0-Pam9OfuR78FbxI-14" value="User_id" style="ellipse;whiteSpace=wrap;html=1;fontSize=16;fillColor=none;" parent="1" vertex="1">
                    <mxGeometry x="-310" y="357" width="100" height="50" as="geometry"/>
                </mxCell>
                <mxCell id="C2yQ0-Pam9OfuR78FbxI-15" value="Status" style="ellipse;whiteSpace=wrap;html=1;fontSize=16;fillColor=none;" parent="1" vertex="1">
                    <mxGeometry x="-340" y="297" width="100" height="50" as="geometry"/>
                </mxCell>
                <mxCell id="C2yQ0-Pam9OfuR78FbxI-16" value="Long_URL" style="ellipse;whiteSpace=wrap;html=1;fontSize=16;fillColor=none;flipH=1;flipV=1;direction=west;rotation=359;" parent="1" vertex="1">
                    <mxGeometry x="1095" y="480" width="100" height="50" as="geometry"/>
                </mxCell>
                <mxCell id="C2yQ0-Pam9OfuR78FbxI-17" value="Short_URL" style="ellipse;whiteSpace=wrap;html=1;fontSize=16;fillColor=none;flipH=1;flipV=1;direction=west;rotation=359;" parent="1" vertex="1">
                    <mxGeometry x="1145" y="420" width="100" height="50" as="geometry"/>
                </mxCell>
                <mxCell id="C2yQ0-Pam9OfuR78FbxI-18" value="User_id" style="ellipse;whiteSpace=wrap;html=1;fontSize=16;fillColor=none;flipH=1;flipV=1;direction=west;rotation=359;" parent="1" vertex="1">
                    <mxGeometry x="1165" y="357" width="100" height="50" as="geometry"/>
                </mxCell>
                <mxCell id="C2yQ0-Pam9OfuR78FbxI-19" value="Clicks" style="ellipse;whiteSpace=wrap;html=1;fontSize=16;fillColor=none;" parent="1" vertex="1">
                    <mxGeometry x="1165" y="217" width="100" height="50" as="geometry"/>
                </mxCell>
                <mxCell id="C2yQ0-Pam9OfuR78FbxI-21" value="Status" style="ellipse;whiteSpace=wrap;html=1;fontSize=16;fillColor=none;" parent="1" vertex="1">
                    <mxGeometry x="1175" y="280" width="100" height="50" as="geometry"/>
                </mxCell>
                <mxCell id="C2yQ0-Pam9OfuR78FbxI-22" value="URL_Password" style="ellipse;whiteSpace=wrap;html=1;fontSize=16;fillColor=none;" parent="1" vertex="1">
                    <mxGeometry x="1065" y="70" width="135" height="77" as="geometry"/>
                </mxCell>
                <mxCell id="C2yQ0-Pam9OfuR78FbxI-23" value="URL_Log" style="ellipse;whiteSpace=wrap;html=1;fontSize=16;fillColor=none;" parent="1" vertex="1">
                    <mxGeometry x="-310" y="-233" width="120" height="50" as="geometry"/>
                </mxCell>
                <mxCell id="C2yQ0-Pam9OfuR78FbxI-24" value="Created at&amp;nbsp;" style="ellipse;whiteSpace=wrap;html=1;fontSize=16;fillColor=none;direction=west;rotation=0;" parent="1" vertex="1">
                    <mxGeometry x="570.0013050812483" y="720" width="100" height="50" as="geometry"/>
                </mxCell>
                <mxCell id="C2yQ0-Pam9OfuR78FbxI-28" value="Clicks" style="ellipse;whiteSpace=wrap;html=1;fontSize=16;fillColor=none;direction=west;rotation=0;" parent="1" vertex="1">
                    <mxGeometry x="601.0013050812483" y="787" width="100" height="50" as="geometry"/>
                </mxCell>
                <mxCell id="C2yQ0-Pam9OfuR78FbxI-29" value="Status" style="ellipse;whiteSpace=wrap;html=1;fontSize=16;fillColor=none;direction=west;rotation=0;" parent="1" vertex="1">
                    <mxGeometry x="570.0013050812483" y="860" width="100" height="50" as="geometry"/>
                </mxCell>
                <mxCell id="C2yQ0-Pam9OfuR78FbxI-25" value="Long_URL" style="ellipse;whiteSpace=wrap;html=1;fontSize=16;fillColor=none;flipH=1;flipV=1;direction=east;rotation=359;" parent="1" vertex="1">
                    <mxGeometry x="140.0024923804744" y="850.0013050812483" width="100" height="50" as="geometry"/>
                </mxCell>
                <mxCell id="C2yQ0-Pam9OfuR78FbxI-26" value="Short_URL" style="ellipse;whiteSpace=wrap;html=1;fontSize=16;fillColor=none;flipH=1;flipV=1;direction=east;rotation=359;" parent="1" vertex="1">
                    <mxGeometry x="90.0024923804744" y="792.0013050812483" width="100" height="50" as="geometry"/>
                </mxCell>
                <mxCell id="C2yQ0-Pam9OfuR78FbxI-27" value="User_id" style="ellipse;whiteSpace=wrap;html=1;fontSize=16;fillColor=none;flipH=1;flipV=1;direction=east;rotation=359;" parent="1" vertex="1">
                    <mxGeometry x="130.0024923804744" y="730.5713050812484" width="100" height="50" as="geometry"/>
                </mxCell>
                <mxCell id="C2yQ0-Pam9OfuR78FbxI-33" value="Clicks" style="ellipse;whiteSpace=wrap;html=1;fontSize=16;fillColor=none;" parent="1" vertex="1">
                    <mxGeometry x="-190" y="-273" width="100" height="50" as="geometry"/>
                </mxCell>
                <mxCell id="C2yQ0-Pam9OfuR78FbxI-34" value="User_id" style="ellipse;whiteSpace=wrap;html=1;fontSize=16;fillColor=none;" parent="1" vertex="1">
                    <mxGeometry x="-70" y="-273" width="100" height="50" as="geometry"/>
                </mxCell>
                <mxCell id="C2yQ0-Pam9OfuR78FbxI-35" value="URL_id" style="ellipse;whiteSpace=wrap;html=1;fontSize=16;fillColor=none;" parent="1" vertex="1">
                    <mxGeometry x="30" y="-233" width="100" height="50" as="geometry"/>
                </mxCell>
                <mxCell id="C2yQ0-Pam9OfuR78FbxI-36" value="URL_Log" style="ellipse;whiteSpace=wrap;html=1;fontSize=16;fillColor=none;" parent="1" vertex="1">
                    <mxGeometry x="180" y="1197" width="120" height="50" as="geometry"/>
                </mxCell>
                <mxCell id="C2yQ0-Pam9OfuR78FbxI-37" value="Clicks" style="ellipse;whiteSpace=wrap;html=1;fontSize=16;fillColor=none;" parent="1" vertex="1">
                    <mxGeometry x="550" y="1197" width="100" height="50" as="geometry"/>
                </mxCell>
                <mxCell id="C2yQ0-Pam9OfuR78FbxI-38" value="User_id" style="ellipse;whiteSpace=wrap;html=1;fontSize=16;fillColor=none;" parent="1" vertex="1">
                    <mxGeometry x="300" y="1237" width="100" height="50" as="geometry"/>
                </mxCell>
                <mxCell id="C2yQ0-Pam9OfuR78FbxI-39" value="URL_id" style="ellipse;whiteSpace=wrap;html=1;fontSize=16;fillColor=none;" parent="1" vertex="1">
                    <mxGeometry x="425" y="1237" width="100" height="50" as="geometry"/>
                </mxCell>
                <mxCell id="C2yQ0-Pam9OfuR78FbxI-40" value="URL_Log" style="ellipse;whiteSpace=wrap;html=1;fontSize=16;fillColor=none;" parent="1" vertex="1">
                    <mxGeometry x="715" y="-220" width="120" height="50" as="geometry"/>
                </mxCell>
                <mxCell id="C2yQ0-Pam9OfuR78FbxI-41" value="Clicks" style="ellipse;whiteSpace=wrap;html=1;fontSize=16;fillColor=none;" parent="1" vertex="1">
                    <mxGeometry x="835" y="-260" width="100" height="50" as="geometry"/>
                </mxCell>
                <mxCell id="C2yQ0-Pam9OfuR78FbxI-42" value="User_id" style="ellipse;whiteSpace=wrap;html=1;fontSize=16;fillColor=none;" parent="1" vertex="1">
                    <mxGeometry x="955" y="-260" width="100" height="50" as="geometry"/>
                </mxCell>
                <mxCell id="C2yQ0-Pam9OfuR78FbxI-43" value="URL_id" style="ellipse;whiteSpace=wrap;html=1;fontSize=16;fillColor=none;" parent="1" vertex="1">
                    <mxGeometry x="1055" y="-220" width="100" height="50" as="geometry"/>
                </mxCell>
                <mxCell id="C2yQ0-Pam9OfuR78FbxI-44" value="Image" style="ellipse;whiteSpace=wrap;html=1;fontSize=16;fillColor=none;" parent="1" vertex="1">
                    <mxGeometry x="170" y="287" width="100" height="50" as="geometry"/>
                </mxCell>
                <mxCell id="C2yQ0-Pam9OfuR78FbxI-45" value="User_name" style="ellipse;whiteSpace=wrap;html=1;fontSize=16;fillColor=none;" parent="1" vertex="1">
                    <mxGeometry x="220" y="227" width="100" height="50" as="geometry"/>
                </mxCell>
                <mxCell id="C2yQ0-Pam9OfuR78FbxI-46" value="Name" style="ellipse;whiteSpace=wrap;html=1;fontSize=16;fillColor=none;" parent="1" vertex="1">
                    <mxGeometry x="530" y="287" width="100" height="50" as="geometry"/>
                </mxCell>
                <mxCell id="C2yQ0-Pam9OfuR78FbxI-47" value="Password" style="ellipse;whiteSpace=wrap;html=1;fontSize=16;fillColor=none;" parent="1" vertex="1">
                    <mxGeometry x="290" y="177" width="100" height="50" as="geometry"/>
                </mxCell>
                <mxCell id="C2yQ0-Pam9OfuR78FbxI-48" value="Email" style="ellipse;whiteSpace=wrap;html=1;fontSize=16;fillColor=none;" parent="1" vertex="1">
                    <mxGeometry x="480" y="227" width="100" height="50" as="geometry"/>
                </mxCell>
                <mxCell id="C2yQ0-Pam9OfuR78FbxI-49" value="Contact" style="ellipse;whiteSpace=wrap;html=1;fontSize=16;fillColor=none;" parent="1" vertex="1">
                    <mxGeometry x="410" y="177" width="100" height="50" as="geometry"/>
                </mxCell>
                <mxCell id="C2yQ0-Pam9OfuR78FbxI-55" value="" style="endArrow=none;html=1;rounded=0;fontSize=12;startSize=8;endSize=8;curved=1;exitX=0.5;exitY=1;exitDx=0;exitDy=0;entryX=1;entryY=0;entryDx=0;entryDy=0;" parent="1" source="C2yQ0-Pam9OfuR78FbxI-35" target="C2yQ0-Pam9OfuR78FbxI-6" edge="1">
                    <mxGeometry width="50" height="50" relative="1" as="geometry">
                        <mxPoint x="120" y="-116" as="sourcePoint"/>
                        <mxPoint x="120" y="24" as="targetPoint"/>
                    </mxGeometry>
                </mxCell>
                <mxCell id="C2yQ0-Pam9OfuR78FbxI-56" value="" style="endArrow=none;html=1;rounded=0;fontSize=12;startSize=8;endSize=8;curved=1;exitX=0.5;exitY=1;exitDx=0;exitDy=0;entryX=0.75;entryY=0;entryDx=0;entryDy=0;" parent="1" source="C2yQ0-Pam9OfuR78FbxI-34" target="C2yQ0-Pam9OfuR78FbxI-6" edge="1">
                    <mxGeometry width="50" height="50" relative="1" as="geometry">
                        <mxPoint x="40" y="-51" as="sourcePoint"/>
                        <mxPoint x="-70" y="-83" as="targetPoint"/>
                    </mxGeometry>
                </mxCell>
                <mxCell id="C2yQ0-Pam9OfuR78FbxI-57" value="" style="endArrow=none;html=1;rounded=0;fontSize=12;startSize=8;endSize=8;curved=1;exitX=0.5;exitY=1;exitDx=0;exitDy=0;entryX=0.5;entryY=0;entryDx=0;entryDy=0;" parent="1" source="C2yQ0-Pam9OfuR78FbxI-33" target="C2yQ0-Pam9OfuR78FbxI-6" edge="1">
                    <mxGeometry width="50" height="50" relative="1" as="geometry">
                        <mxPoint x="-180" y="-116" as="sourcePoint"/>
                        <mxPoint x="-180" y="24" as="targetPoint"/>
                    </mxGeometry>
                </mxCell>
                <mxCell id="C2yQ0-Pam9OfuR78FbxI-58" value="" style="endArrow=none;html=1;rounded=0;fontSize=12;startSize=8;endSize=8;curved=1;exitX=0.5;exitY=1;exitDx=0;exitDy=0;entryX=0.25;entryY=0;entryDx=0;entryDy=0;" parent="1" source="C2yQ0-Pam9OfuR78FbxI-23" target="C2yQ0-Pam9OfuR78FbxI-6" edge="1">
                    <mxGeometry width="50" height="50" relative="1" as="geometry">
                        <mxPoint x="-220" y="-146" as="sourcePoint"/>
                        <mxPoint x="-220" y="-6" as="targetPoint"/>
                    </mxGeometry>
                </mxCell>
                <mxCell id="C2yQ0-Pam9OfuR78FbxI-59" value="" style="endArrow=none;html=1;rounded=0;fontSize=12;startSize=8;endSize=8;curved=1;exitX=1;exitY=0.5;exitDx=0;exitDy=0;entryX=0.25;entryY=0;entryDx=0;entryDy=0;" parent="1" source="C2yQ0-Pam9OfuR78FbxI-8" target="C2yQ0-Pam9OfuR78FbxI-2" edge="1">
                    <mxGeometry width="50" height="50" relative="1" as="geometry">
                        <mxPoint y="224" as="sourcePoint"/>
                        <mxPoint y="364" as="targetPoint"/>
                    </mxGeometry>
                </mxCell>
                <mxCell id="C2yQ0-Pam9OfuR78FbxI-60" value="" style="endArrow=none;html=1;rounded=0;fontSize=12;startSize=8;endSize=8;curved=1;exitX=1;exitY=0.5;exitDx=0;exitDy=0;entryX=0;entryY=0.5;entryDx=0;entryDy=0;" parent="1" source="C2yQ0-Pam9OfuR78FbxI-9" target="C2yQ0-Pam9OfuR78FbxI-2" edge="1">
                    <mxGeometry width="50" height="50" relative="1" as="geometry">
                        <mxPoint x="10" y="234" as="sourcePoint"/>
                        <mxPoint x="10" y="374" as="targetPoint"/>
                    </mxGeometry>
                </mxCell>
                <mxCell id="C2yQ0-Pam9OfuR78FbxI-61" value="" style="endArrow=none;html=1;rounded=0;fontSize=12;startSize=8;endSize=8;curved=1;exitX=1;exitY=0.5;exitDx=0;exitDy=0;entryX=0;entryY=0.75;entryDx=0;entryDy=0;" parent="1" source="C2yQ0-Pam9OfuR78FbxI-15" target="C2yQ0-Pam9OfuR78FbxI-2" edge="1">
                    <mxGeometry width="50" height="50" relative="1" as="geometry">
                        <mxPoint x="-60" y="407" as="sourcePoint"/>
                        <mxPoint x="-60" y="547" as="targetPoint"/>
                    </mxGeometry>
                </mxCell>
                <mxCell id="C2yQ0-Pam9OfuR78FbxI-62" value="" style="endArrow=none;html=1;rounded=0;fontSize=12;startSize=8;endSize=8;curved=1;exitX=1;exitY=0.5;exitDx=0;exitDy=0;entryX=0;entryY=1;entryDx=0;entryDy=0;" parent="1" source="C2yQ0-Pam9OfuR78FbxI-14" target="C2yQ0-Pam9OfuR78FbxI-2" edge="1">
                    <mxGeometry width="50" height="50" relative="1" as="geometry">
                        <mxPoint x="-70" y="154" as="sourcePoint"/>
                        <mxPoint x="-190" y="367" as="targetPoint"/>
                    </mxGeometry>
                </mxCell>
                <mxCell id="C2yQ0-Pam9OfuR78FbxI-63" value="" style="endArrow=none;html=1;rounded=0;fontSize=12;startSize=8;endSize=8;curved=1;exitX=1;exitY=0;exitDx=0;exitDy=0;entryX=0.14;entryY=0.995;entryDx=0;entryDy=0;entryPerimeter=0;" parent="1" source="C2yQ0-Pam9OfuR78FbxI-13" target="C2yQ0-Pam9OfuR78FbxI-2" edge="1">
                    <mxGeometry width="50" height="50" relative="1" as="geometry">
                        <mxPoint x="-60" y="417" as="sourcePoint"/>
                        <mxPoint x="-60" y="557" as="targetPoint"/>
                    </mxGeometry>
                </mxCell>
                <mxCell id="C2yQ0-Pam9OfuR78FbxI-64" value="" style="endArrow=none;html=1;rounded=0;fontSize=12;startSize=8;endSize=8;curved=1;exitX=0.5;exitY=0;exitDx=0;exitDy=0;" parent="1" source="C2yQ0-Pam9OfuR78FbxI-12" target="C2yQ0-Pam9OfuR78FbxI-2" edge="1">
                    <mxGeometry width="50" height="50" relative="1" as="geometry">
                        <mxPoint x="-50" y="174" as="sourcePoint"/>
                        <mxPoint x="-50" y="314" as="targetPoint"/>
                    </mxGeometry>
                </mxCell>
                <mxCell id="C2yQ0-Pam9OfuR78FbxI-65" value="" style="endArrow=none;html=1;rounded=0;fontSize=12;startSize=8;endSize=8;curved=1;exitX=0.5;exitY=1;exitDx=0;exitDy=0;entryX=0.75;entryY=0;entryDx=0;entryDy=0;" parent="1" source="C2yQ0-Pam9OfuR78FbxI-22" target="C2yQ0-Pam9OfuR78FbxI-3" edge="1">
                    <mxGeometry width="50" height="50" relative="1" as="geometry">
                        <mxPoint x="945" y="157" as="sourcePoint"/>
                        <mxPoint x="945" y="297" as="targetPoint"/>
                    </mxGeometry>
                </mxCell>
                <mxCell id="C2yQ0-Pam9OfuR78FbxI-66" value="" style="endArrow=none;html=1;rounded=0;fontSize=12;startSize=8;endSize=8;curved=1;exitX=1;exitY=0;exitDx=0;exitDy=0;entryX=0;entryY=0.5;entryDx=0;entryDy=0;" parent="1" source="C2yQ0-Pam9OfuR78FbxI-3" target="C2yQ0-Pam9OfuR78FbxI-11" edge="1">
                    <mxGeometry width="50" height="50" relative="1" as="geometry">
                        <mxPoint x="955" y="167" as="sourcePoint"/>
                        <mxPoint x="955" y="307" as="targetPoint"/>
                    </mxGeometry>
                </mxCell>
                <mxCell id="C2yQ0-Pam9OfuR78FbxI-67" value="" style="endArrow=none;html=1;rounded=0;fontSize=12;startSize=8;endSize=8;curved=1;exitX=1;exitY=0.25;exitDx=0;exitDy=0;entryX=0;entryY=0.5;entryDx=0;entryDy=0;" parent="1" source="C2yQ0-Pam9OfuR78FbxI-3" target="C2yQ0-Pam9OfuR78FbxI-19" edge="1">
                    <mxGeometry width="50" height="50" relative="1" as="geometry">
                        <mxPoint x="965" y="177" as="sourcePoint"/>
                        <mxPoint x="965" y="317" as="targetPoint"/>
                    </mxGeometry>
                </mxCell>
                <mxCell id="C2yQ0-Pam9OfuR78FbxI-68" value="" style="endArrow=none;html=1;rounded=0;fontSize=12;startSize=8;endSize=8;curved=1;exitX=1;exitY=0.5;exitDx=0;exitDy=0;entryX=0;entryY=0.5;entryDx=0;entryDy=0;" parent="1" source="C2yQ0-Pam9OfuR78FbxI-3" target="C2yQ0-Pam9OfuR78FbxI-21" edge="1">
                    <mxGeometry width="50" height="50" relative="1" as="geometry">
                        <mxPoint x="975" y="187" as="sourcePoint"/>
                        <mxPoint x="975" y="327" as="targetPoint"/>
                    </mxGeometry>
                </mxCell>
                <mxCell id="C2yQ0-Pam9OfuR78FbxI-69" value="" style="endArrow=none;html=1;rounded=0;fontSize=12;startSize=8;endSize=8;curved=1;exitX=1;exitY=0.75;exitDx=0;exitDy=0;entryX=1;entryY=0.5;entryDx=0;entryDy=0;" parent="1" source="C2yQ0-Pam9OfuR78FbxI-3" target="C2yQ0-Pam9OfuR78FbxI-18" edge="1">
                    <mxGeometry width="50" height="50" relative="1" as="geometry">
                        <mxPoint x="985" y="197" as="sourcePoint"/>
                        <mxPoint x="985" y="337" as="targetPoint"/>
                    </mxGeometry>
                </mxCell>
                <mxCell id="C2yQ0-Pam9OfuR78FbxI-70" value="" style="endArrow=none;html=1;rounded=0;fontSize=12;startSize=8;endSize=8;curved=1;exitX=1;exitY=1;exitDx=0;exitDy=0;entryX=1;entryY=0.5;entryDx=0;entryDy=0;" parent="1" source="C2yQ0-Pam9OfuR78FbxI-3" target="C2yQ0-Pam9OfuR78FbxI-17" edge="1">
                    <mxGeometry width="50" height="50" relative="1" as="geometry">
                        <mxPoint x="995" y="207" as="sourcePoint"/>
                        <mxPoint x="995" y="347" as="targetPoint"/>
                    </mxGeometry>
                </mxCell>
                <mxCell id="C2yQ0-Pam9OfuR78FbxI-71" value="" style="endArrow=none;html=1;rounded=0;fontSize=12;startSize=8;endSize=8;curved=1;exitX=0.75;exitY=1;exitDx=0;exitDy=0;entryX=1;entryY=1;entryDx=0;entryDy=0;" parent="1" source="C2yQ0-Pam9OfuR78FbxI-3" target="C2yQ0-Pam9OfuR78FbxI-16" edge="1">
                    <mxGeometry width="50" height="50" relative="1" as="geometry">
                        <mxPoint x="1005" y="217" as="sourcePoint"/>
                        <mxPoint x="1005" y="357" as="targetPoint"/>
                    </mxGeometry>
                </mxCell>
                <mxCell id="C2yQ0-Pam9OfuR78FbxI-72" value="" style="endArrow=none;html=1;rounded=0;fontSize=12;startSize=8;endSize=8;curved=1;exitX=0.5;exitY=1;exitDx=0;exitDy=0;entryX=0.25;entryY=0;entryDx=0;entryDy=0;" parent="1" source="C2yQ0-Pam9OfuR78FbxI-41" target="C2yQ0-Pam9OfuR78FbxI-7" edge="1">
                    <mxGeometry width="50" height="50" relative="1" as="geometry">
                        <mxPoint x="695" y="-110" as="sourcePoint"/>
                        <mxPoint x="695" y="30" as="targetPoint"/>
                    </mxGeometry>
                </mxCell>
                <mxCell id="C2yQ0-Pam9OfuR78FbxI-73" value="" style="endArrow=none;html=1;rounded=0;fontSize=12;startSize=8;endSize=8;curved=1;exitX=0.5;exitY=1;exitDx=0;exitDy=0;entryX=0;entryY=0;entryDx=0;entryDy=0;" parent="1" source="C2yQ0-Pam9OfuR78FbxI-40" target="C2yQ0-Pam9OfuR78FbxI-7" edge="1">
                    <mxGeometry width="50" height="50" relative="1" as="geometry">
                        <mxPoint x="735" y="-90" as="sourcePoint"/>
                        <mxPoint x="735" y="50" as="targetPoint"/>
                    </mxGeometry>
                </mxCell>
                <mxCell id="C2yQ0-Pam9OfuR78FbxI-74" value="" style="endArrow=none;html=1;rounded=0;fontSize=12;startSize=8;endSize=8;curved=1;exitX=0.5;exitY=1;exitDx=0;exitDy=0;entryX=0.5;entryY=0;entryDx=0;entryDy=0;" parent="1" source="C2yQ0-Pam9OfuR78FbxI-42" target="C2yQ0-Pam9OfuR78FbxI-7" edge="1">
                    <mxGeometry width="50" height="50" relative="1" as="geometry">
                        <mxPoint x="945" y="-210" as="sourcePoint"/>
                        <mxPoint x="965" y="-63" as="targetPoint"/>
                    </mxGeometry>
                </mxCell>
                <mxCell id="C2yQ0-Pam9OfuR78FbxI-75" value="" style="endArrow=none;html=1;rounded=0;fontSize=12;startSize=8;endSize=8;curved=1;exitX=0.5;exitY=1;exitDx=0;exitDy=0;entryX=0.75;entryY=0;entryDx=0;entryDy=0;" parent="1" source="C2yQ0-Pam9OfuR78FbxI-43" target="C2yQ0-Pam9OfuR78FbxI-7" edge="1">
                    <mxGeometry width="50" height="50" relative="1" as="geometry">
                        <mxPoint x="905" y="-190" as="sourcePoint"/>
                        <mxPoint x="925" y="-43" as="targetPoint"/>
                    </mxGeometry>
                </mxCell>
                <mxCell id="C2yQ0-Pam9OfuR78FbxI-76" value="" style="endArrow=none;html=1;rounded=0;fontSize=12;startSize=8;endSize=8;curved=1;exitX=0.5;exitY=1;exitDx=0;exitDy=0;entryX=0.25;entryY=0;entryDx=0;entryDy=0;" parent="1" source="C2yQ0-Pam9OfuR78FbxI-45" target="C2yQ0-Pam9OfuR78FbxI-1" edge="1">
                    <mxGeometry width="50" height="50" relative="1" as="geometry">
                        <mxPoint x="210" y="77" as="sourcePoint"/>
                        <mxPoint x="210" y="217" as="targetPoint"/>
                    </mxGeometry>
                </mxCell>
                <mxCell id="C2yQ0-Pam9OfuR78FbxI-77" value="" style="endArrow=none;html=1;rounded=0;fontSize=12;startSize=8;endSize=8;curved=1;exitX=0.5;exitY=1;exitDx=0;exitDy=0;entryX=0;entryY=0;entryDx=0;entryDy=0;" parent="1" source="C2yQ0-Pam9OfuR78FbxI-44" target="C2yQ0-Pam9OfuR78FbxI-1" edge="1">
                    <mxGeometry width="50" height="50" relative="1" as="geometry">
                        <mxPoint x="220" y="87" as="sourcePoint"/>
                        <mxPoint x="220" y="227" as="targetPoint"/>
                    </mxGeometry>
                </mxCell>
                <mxCell id="C2yQ0-Pam9OfuR78FbxI-78" value="" style="endArrow=none;html=1;rounded=0;fontSize=12;startSize=8;endSize=8;curved=1;exitX=0.5;exitY=0;exitDx=0;exitDy=0;entryX=0.5;entryY=1;entryDx=0;entryDy=0;" parent="1" source="C2yQ0-Pam9OfuR78FbxI-1" target="C2yQ0-Pam9OfuR78FbxI-47" edge="1">
                    <mxGeometry width="50" height="50" relative="1" as="geometry">
                        <mxPoint x="230" y="97" as="sourcePoint"/>
                        <mxPoint x="230" y="237" as="targetPoint"/>
                    </mxGeometry>
                </mxCell>
                <mxCell id="C2yQ0-Pam9OfuR78FbxI-79" value="" style="endArrow=none;html=1;rounded=0;fontSize=12;startSize=8;endSize=8;curved=1;exitX=0.602;exitY=-0.014;exitDx=0;exitDy=0;entryX=0.5;entryY=1;entryDx=0;entryDy=0;exitPerimeter=0;" parent="1" source="C2yQ0-Pam9OfuR78FbxI-1" target="C2yQ0-Pam9OfuR78FbxI-49" edge="1">
                    <mxGeometry width="50" height="50" relative="1" as="geometry">
                        <mxPoint x="240" y="107" as="sourcePoint"/>
                        <mxPoint x="240" y="247" as="targetPoint"/>
                    </mxGeometry>
                </mxCell>
                <mxCell id="C2yQ0-Pam9OfuR78FbxI-80" value="" style="endArrow=none;html=1;rounded=0;fontSize=12;startSize=8;endSize=8;curved=1;exitX=0.75;exitY=0;exitDx=0;exitDy=0;entryX=0.5;entryY=1;entryDx=0;entryDy=0;" parent="1" source="C2yQ0-Pam9OfuR78FbxI-1" target="C2yQ0-Pam9OfuR78FbxI-48" edge="1">
                    <mxGeometry width="50" height="50" relative="1" as="geometry">
                        <mxPoint x="330" y="17" as="sourcePoint"/>
                        <mxPoint x="330" y="157" as="targetPoint"/>
                    </mxGeometry>
                </mxCell>
                <mxCell id="C2yQ0-Pam9OfuR78FbxI-81" value="" style="endArrow=none;html=1;rounded=0;fontSize=12;startSize=8;endSize=8;curved=1;exitX=1;exitY=0;exitDx=0;exitDy=0;entryX=0.5;entryY=1;entryDx=0;entryDy=0;" parent="1" source="C2yQ0-Pam9OfuR78FbxI-1" target="C2yQ0-Pam9OfuR78FbxI-46" edge="1">
                    <mxGeometry width="50" height="50" relative="1" as="geometry">
                        <mxPoint x="440" y="447" as="sourcePoint"/>
                        <mxPoint x="540" y="287" as="targetPoint"/>
                    </mxGeometry>
                </mxCell>
                <mxCell id="C2yQ0-Pam9OfuR78FbxI-82" value="" style="endArrow=none;html=1;rounded=0;fontSize=12;startSize=8;endSize=8;curved=1;exitX=1;exitY=0.5;exitDx=0;exitDy=0;entryX=1;entryY=0;entryDx=0;entryDy=0;" parent="1" source="C2yQ0-Pam9OfuR78FbxI-24" target="C2yQ0-Pam9OfuR78FbxI-5" edge="1">
                    <mxGeometry width="50" height="50" relative="1" as="geometry">
                        <mxPoint x="410" y="647" as="sourcePoint"/>
                        <mxPoint x="410" y="797" as="targetPoint"/>
                    </mxGeometry>
                </mxCell>
                <mxCell id="C2yQ0-Pam9OfuR78FbxI-83" value="" style="endArrow=none;html=1;rounded=0;fontSize=12;startSize=8;endSize=8;curved=1;exitX=1;exitY=0.5;exitDx=0;exitDy=0;entryX=1;entryY=0.5;entryDx=0;entryDy=0;" parent="1" source="C2yQ0-Pam9OfuR78FbxI-28" target="C2yQ0-Pam9OfuR78FbxI-5" edge="1">
                    <mxGeometry width="50" height="50" relative="1" as="geometry">
                        <mxPoint x="580" y="808" as="sourcePoint"/>
                        <mxPoint x="470" y="850" as="targetPoint"/>
                    </mxGeometry>
                </mxCell>
                <mxCell id="C2yQ0-Pam9OfuR78FbxI-84" value="" style="endArrow=none;html=1;rounded=0;fontSize=12;startSize=8;endSize=8;curved=1;exitX=1;exitY=0.5;exitDx=0;exitDy=0;entryX=1;entryY=1;entryDx=0;entryDy=0;" parent="1" source="C2yQ0-Pam9OfuR78FbxI-29" target="C2yQ0-Pam9OfuR78FbxI-5" edge="1">
                    <mxGeometry width="50" height="50" relative="1" as="geometry">
                        <mxPoint x="520" y="880" as="sourcePoint"/>
                        <mxPoint x="410" y="922" as="targetPoint"/>
                    </mxGeometry>
                </mxCell>
                <mxCell id="C2yQ0-Pam9OfuR78FbxI-85" value="" style="endArrow=none;html=1;rounded=0;fontSize=12;startSize=8;endSize=8;curved=1;exitX=0;exitY=0.5;exitDx=0;exitDy=0;entryX=1;entryY=0.5;entryDx=0;entryDy=0;" parent="1" source="C2yQ0-Pam9OfuR78FbxI-5" target="C2yQ0-Pam9OfuR78FbxI-26" edge="1">
                    <mxGeometry width="50" height="50" relative="1" as="geometry">
                        <mxPoint x="330" y="678" as="sourcePoint"/>
                        <mxPoint x="220" y="720" as="targetPoint"/>
                    </mxGeometry>
                </mxCell>
                <mxCell id="C2yQ0-Pam9OfuR78FbxI-86" value="" style="endArrow=none;html=1;rounded=0;fontSize=12;startSize=8;endSize=8;curved=1;exitX=0;exitY=0;exitDx=0;exitDy=0;entryX=1;entryY=0.5;entryDx=0;entryDy=0;" parent="1" source="C2yQ0-Pam9OfuR78FbxI-5" target="C2yQ0-Pam9OfuR78FbxI-27" edge="1">
                    <mxGeometry width="50" height="50" relative="1" as="geometry">
                        <mxPoint x="340" y="688" as="sourcePoint"/>
                        <mxPoint x="230" y="730" as="targetPoint"/>
                    </mxGeometry>
                </mxCell>
                <mxCell id="C2yQ0-Pam9OfuR78FbxI-87" value="" style="endArrow=none;html=1;rounded=0;fontSize=12;startSize=8;endSize=8;curved=1;exitX=0;exitY=1;exitDx=0;exitDy=0;entryX=1;entryY=0.5;entryDx=0;entryDy=0;" parent="1" source="C2yQ0-Pam9OfuR78FbxI-5" target="C2yQ0-Pam9OfuR78FbxI-25" edge="1">
                    <mxGeometry width="50" height="50" relative="1" as="geometry">
                        <mxPoint x="350" y="698" as="sourcePoint"/>
                        <mxPoint x="240" y="740" as="targetPoint"/>
                    </mxGeometry>
                </mxCell>
                <mxCell id="C2yQ0-Pam9OfuR78FbxI-89" value="" style="endArrow=none;html=1;rounded=0;fontSize=12;startSize=8;endSize=8;curved=1;exitX=0;exitY=0;exitDx=0;exitDy=0;entryX=1;entryY=0.75;entryDx=0;entryDy=0;" parent="1" source="C2yQ0-Pam9OfuR78FbxI-37" target="C2yQ0-Pam9OfuR78FbxI-4" edge="1">
                    <mxGeometry width="50" height="50" relative="1" as="geometry">
                        <mxPoint x="410" y="954" as="sourcePoint"/>
                        <mxPoint x="410" y="1104" as="targetPoint"/>
                    </mxGeometry>
                </mxCell>
                <mxCell id="C2yQ0-Pam9OfuR78FbxI-90" value="" style="endArrow=none;html=1;rounded=0;fontSize=12;startSize=8;endSize=8;curved=1;exitX=0.75;exitY=1;exitDx=0;exitDy=0;entryX=0.5;entryY=0;entryDx=0;entryDy=0;" parent="1" source="C2yQ0-Pam9OfuR78FbxI-4" target="C2yQ0-Pam9OfuR78FbxI-39" edge="1">
                    <mxGeometry width="50" height="50" relative="1" as="geometry">
                        <mxPoint x="420" y="964" as="sourcePoint"/>
                        <mxPoint x="420" y="1114" as="targetPoint"/>
                    </mxGeometry>
                </mxCell>
                <mxCell id="C2yQ0-Pam9OfuR78FbxI-91" value="" style="endArrow=none;html=1;rounded=0;fontSize=12;startSize=8;endSize=8;curved=1;exitX=0.25;exitY=1;exitDx=0;exitDy=0;entryX=0.5;entryY=0;entryDx=0;entryDy=0;" parent="1" source="C2yQ0-Pam9OfuR78FbxI-4" target="C2yQ0-Pam9OfuR78FbxI-38" edge="1">
                    <mxGeometry width="50" height="50" relative="1" as="geometry">
                        <mxPoint x="430" y="974" as="sourcePoint"/>
                        <mxPoint x="430" y="1124" as="targetPoint"/>
                    </mxGeometry>
                </mxCell>
                <mxCell id="C2yQ0-Pam9OfuR78FbxI-92" value="" style="endArrow=none;html=1;rounded=0;fontSize=12;startSize=8;endSize=8;curved=1;exitX=0.5;exitY=0;exitDx=0;exitDy=0;entryX=0;entryY=0.75;entryDx=0;entryDy=0;" parent="1" source="C2yQ0-Pam9OfuR78FbxI-36" target="C2yQ0-Pam9OfuR78FbxI-4" edge="1">
                    <mxGeometry width="50" height="50" relative="1" as="geometry">
                        <mxPoint x="78.57" y="1037" as="sourcePoint"/>
                        <mxPoint x="78.57" y="1187" as="targetPoint"/>
                    </mxGeometry>
                </mxCell>
                <mxCell id="C2yQ0-Pam9OfuR78FbxI-93" value="Can Create&amp;nbsp;" style="rhombus;whiteSpace=wrap;html=1;fontSize=17;fillColor=none;rotation=15;" parent="1" vertex="1">
                    <mxGeometry x="40" y="357" width="150" height="83" as="geometry"/>
                </mxCell>
                <mxCell id="C2yQ0-Pam9OfuR78FbxI-94" value="Can Create&amp;nbsp;" style="rhombus;whiteSpace=wrap;html=1;fontSize=17;fillColor=none;rotation=-20;" parent="1" vertex="1">
                    <mxGeometry x="630" y="387" width="150" height="83" as="geometry"/>
                </mxCell>
                <mxCell id="C2yQ0-Pam9OfuR78FbxI-95" value="Can Create&amp;nbsp;" style="rhombus;whiteSpace=wrap;html=1;fontSize=17;fillColor=none;rotation=0;" parent="1" vertex="1">
                    <mxGeometry x="325" y="590" width="150" height="83" as="geometry"/>
                </mxCell>
                <mxCell id="C2yQ0-Pam9OfuR78FbxI-96" value="Have&lt;br&gt;" style="rhombus;whiteSpace=wrap;html=1;fontSize=17;fillColor=none;rotation=0;" parent="1" vertex="1">
                    <mxGeometry x="-165" y="90" width="150" height="83" as="geometry"/>
                </mxCell>
                <mxCell id="C2yQ0-Pam9OfuR78FbxI-97" value="Have&lt;br&gt;" style="rhombus;whiteSpace=wrap;html=1;fontSize=17;fillColor=none;rotation=0;" parent="1" vertex="1">
                    <mxGeometry x="325" y="924" width="150" height="83" as="geometry"/>
                </mxCell>
                <mxCell id="C2yQ0-Pam9OfuR78FbxI-98" value="Have&lt;br&gt;" style="rhombus;whiteSpace=wrap;html=1;fontSize=17;fillColor=none;rotation=0;" parent="1" vertex="1">
                    <mxGeometry x="860" y="110" width="150" height="83" as="geometry"/>
                </mxCell>
                <mxCell id="C2yQ0-Pam9OfuR78FbxI-99" value="" style="endArrow=none;html=1;rounded=0;fontSize=12;startSize=8;endSize=8;curved=1;entryX=0.5;entryY=1;entryDx=0;entryDy=0;exitX=0.5;exitY=0;exitDx=0;exitDy=0;" parent="1" source="C2yQ0-Pam9OfuR78FbxI-95" target="C2yQ0-Pam9OfuR78FbxI-1" edge="1">
                    <mxGeometry width="50" height="50" relative="1" as="geometry">
                        <mxPoint x="1010" y="1090" as="sourcePoint"/>
                        <mxPoint x="765" y="992.5" as="targetPoint"/>
                    </mxGeometry>
                </mxCell>
                <mxCell id="C2yQ0-Pam9OfuR78FbxI-100" value="" style="endArrow=none;html=1;rounded=0;fontSize=12;startSize=8;endSize=8;curved=1;entryX=0.5;entryY=1;entryDx=0;entryDy=0;exitX=0.5;exitY=0;exitDx=0;exitDy=0;" parent="1" source="C2yQ0-Pam9OfuR78FbxI-5" target="C2yQ0-Pam9OfuR78FbxI-95" edge="1">
                    <mxGeometry width="50" height="50" relative="1" as="geometry">
                        <mxPoint x="1020" y="1100" as="sourcePoint"/>
                        <mxPoint x="775" y="1002.5" as="targetPoint"/>
                    </mxGeometry>
                </mxCell>
                <mxCell id="C2yQ0-Pam9OfuR78FbxI-101" value="" style="endArrow=none;html=1;rounded=0;fontSize=12;startSize=8;endSize=8;curved=1;entryX=0.5;entryY=1;entryDx=0;entryDy=0;exitX=0.5;exitY=0;exitDx=0;exitDy=0;" parent="1" source="C2yQ0-Pam9OfuR78FbxI-4" target="C2yQ0-Pam9OfuR78FbxI-97" edge="1">
                    <mxGeometry width="50" height="50" relative="1" as="geometry">
                        <mxPoint x="1030" y="1064" as="sourcePoint"/>
                        <mxPoint x="785" y="966.5" as="targetPoint"/>
                    </mxGeometry>
                </mxCell>
                <mxCell id="C2yQ0-Pam9OfuR78FbxI-102" value="" style="endArrow=none;html=1;rounded=0;fontSize=12;startSize=8;endSize=8;curved=1;entryX=0.5;entryY=1;entryDx=0;entryDy=0;exitX=0.5;exitY=0;exitDx=0;exitDy=0;" parent="1" source="C2yQ0-Pam9OfuR78FbxI-97" target="C2yQ0-Pam9OfuR78FbxI-5" edge="1">
                    <mxGeometry width="50" height="50" relative="1" as="geometry">
                        <mxPoint x="780" y="1107.5" as="sourcePoint"/>
                        <mxPoint x="535" y="1010" as="targetPoint"/>
                    </mxGeometry>
                </mxCell>
                <mxCell id="C2yQ0-Pam9OfuR78FbxI-103" value="" style="endArrow=none;html=1;rounded=0;fontSize=12;startSize=8;endSize=8;curved=1;exitX=0;exitY=0.5;exitDx=0;exitDy=0;entryX=1;entryY=0.5;entryDx=0;entryDy=0;" parent="1" source="C2yQ0-Pam9OfuR78FbxI-94" target="C2yQ0-Pam9OfuR78FbxI-1" edge="1">
                    <mxGeometry width="50" height="50" relative="1" as="geometry">
                        <mxPoint x="875" y="643" as="sourcePoint"/>
                        <mxPoint x="875" y="530" as="targetPoint"/>
                    </mxGeometry>
                </mxCell>
                <mxCell id="C2yQ0-Pam9OfuR78FbxI-104" value="" style="endArrow=none;html=1;rounded=0;fontSize=12;startSize=8;endSize=8;curved=1;exitX=1;exitY=0.5;exitDx=0;exitDy=0;entryX=0;entryY=0.5;entryDx=0;entryDy=0;" parent="1" source="C2yQ0-Pam9OfuR78FbxI-94" target="C2yQ0-Pam9OfuR78FbxI-3" edge="1">
                    <mxGeometry width="50" height="50" relative="1" as="geometry">
                        <mxPoint x="885" y="653" as="sourcePoint"/>
                        <mxPoint x="885" y="540" as="targetPoint"/>
                    </mxGeometry>
                </mxCell>
                <mxCell id="C2yQ0-Pam9OfuR78FbxI-105" value="" style="endArrow=none;html=1;rounded=0;fontSize=12;startSize=8;endSize=8;curved=1;exitX=0;exitY=0.5;exitDx=0;exitDy=0;entryX=1;entryY=0.5;entryDx=0;entryDy=0;" parent="1" source="C2yQ0-Pam9OfuR78FbxI-93" target="C2yQ0-Pam9OfuR78FbxI-2" edge="1">
                    <mxGeometry width="50" height="50" relative="1" as="geometry">
                        <mxPoint x="895" y="663" as="sourcePoint"/>
                        <mxPoint x="895" y="550" as="targetPoint"/>
                    </mxGeometry>
                </mxCell>
                <mxCell id="C2yQ0-Pam9OfuR78FbxI-106" value="" style="endArrow=none;html=1;rounded=0;fontSize=12;startSize=8;endSize=8;curved=1;exitX=1;exitY=0.5;exitDx=0;exitDy=0;entryX=0;entryY=0.5;entryDx=0;entryDy=0;" parent="1" source="C2yQ0-Pam9OfuR78FbxI-93" target="C2yQ0-Pam9OfuR78FbxI-1" edge="1">
                    <mxGeometry width="50" height="50" relative="1" as="geometry">
                        <mxPoint x="905" y="673" as="sourcePoint"/>
                        <mxPoint x="905" y="560" as="targetPoint"/>
                    </mxGeometry>
                </mxCell>
                <mxCell id="C2yQ0-Pam9OfuR78FbxI-107" value="" style="endArrow=none;html=1;rounded=0;fontSize=12;startSize=8;endSize=8;curved=1;exitX=0.5;exitY=0;exitDx=0;exitDy=0;entryX=0.5;entryY=1;entryDx=0;entryDy=0;" parent="1" source="C2yQ0-Pam9OfuR78FbxI-96" target="C2yQ0-Pam9OfuR78FbxI-6" edge="1">
                    <mxGeometry width="50" height="50" relative="1" as="geometry">
                        <mxPoint x="90" y="-173" as="sourcePoint"/>
                        <mxPoint x="-20" y="-66" as="targetPoint"/>
                    </mxGeometry>
                </mxCell>
                <mxCell id="C2yQ0-Pam9OfuR78FbxI-108" value="" style="endArrow=none;html=1;rounded=0;fontSize=12;startSize=8;endSize=8;curved=1;exitX=0.5;exitY=0;exitDx=0;exitDy=0;entryX=0.5;entryY=1;entryDx=0;entryDy=0;" parent="1" source="C2yQ0-Pam9OfuR78FbxI-2" target="C2yQ0-Pam9OfuR78FbxI-96" edge="1">
                    <mxGeometry width="50" height="50" relative="1" as="geometry">
                        <mxPoint x="100" y="-163" as="sourcePoint"/>
                        <mxPoint x="-10" y="-56" as="targetPoint"/>
                    </mxGeometry>
                </mxCell>
                <mxCell id="C2yQ0-Pam9OfuR78FbxI-109" value="" style="endArrow=none;html=1;rounded=0;fontSize=12;startSize=8;endSize=8;curved=1;exitX=0.5;exitY=1;exitDx=0;exitDy=0;entryX=0.5;entryY=0;entryDx=0;entryDy=0;" parent="1" source="C2yQ0-Pam9OfuR78FbxI-7" target="C2yQ0-Pam9OfuR78FbxI-98" edge="1">
                    <mxGeometry width="50" height="50" relative="1" as="geometry">
                        <mxPoint x="110" y="-153" as="sourcePoint"/>
                        <mxPoint y="-46" as="targetPoint"/>
                    </mxGeometry>
                </mxCell>
                <mxCell id="C2yQ0-Pam9OfuR78FbxI-110" value="" style="endArrow=none;html=1;rounded=0;fontSize=12;startSize=8;endSize=8;curved=1;exitX=0.5;exitY=1;exitDx=0;exitDy=0;entryX=0.5;entryY=0;entryDx=0;entryDy=0;" parent="1" source="C2yQ0-Pam9OfuR78FbxI-98" target="C2yQ0-Pam9OfuR78FbxI-3" edge="1">
                    <mxGeometry width="50" height="50" relative="1" as="geometry">
                        <mxPoint x="120" y="-143" as="sourcePoint"/>
                        <mxPoint x="10" y="-36" as="targetPoint"/>
                    </mxGeometry>
                </mxCell>
                <mxCell id="C2yQ0-Pam9OfuR78FbxI-111" value="1" style="text;html=1;strokeColor=none;fillColor=none;align=center;verticalAlign=middle;whiteSpace=wrap;rounded=0;fontSize=16;" parent="1" vertex="1">
                    <mxGeometry x="-100" y="30" width="60" height="30" as="geometry"/>
                </mxCell>
                <mxCell id="C2yQ0-Pam9OfuR78FbxI-112" value="1" style="text;html=1;strokeColor=none;fillColor=none;align=center;verticalAlign=middle;whiteSpace=wrap;rounded=0;fontSize=16;" parent="1" vertex="1">
                    <mxGeometry x="890" y="234" width="60" height="30" as="geometry"/>
                </mxCell>
                <mxCell id="C2yQ0-Pam9OfuR78FbxI-113" value="1" style="text;html=1;strokeColor=none;fillColor=none;align=center;verticalAlign=middle;whiteSpace=wrap;rounded=0;fontSize=16;" parent="1" vertex="1">
                    <mxGeometry x="890" y="40" width="60" height="30" as="geometry"/>
                </mxCell>
                <mxCell id="C2yQ0-Pam9OfuR78FbxI-114" value="1" style="text;html=1;strokeColor=none;fillColor=none;align=center;verticalAlign=middle;whiteSpace=wrap;rounded=0;fontSize=16;" parent="1" vertex="1">
                    <mxGeometry x="-100" y="204" width="60" height="30" as="geometry"/>
                </mxCell>
                <mxCell id="C2yQ0-Pam9OfuR78FbxI-116" value="1" style="text;html=1;strokeColor=none;fillColor=none;align=center;verticalAlign=middle;whiteSpace=wrap;rounded=0;fontSize=16;" parent="1" vertex="1">
                    <mxGeometry x="383" y="850" width="60" height="30" as="geometry"/>
                </mxCell>
                <mxCell id="C2yQ0-Pam9OfuR78FbxI-117" value="1" style="text;html=1;strokeColor=none;fillColor=none;align=center;verticalAlign=middle;whiteSpace=wrap;rounded=0;fontSize=16;" parent="1" vertex="1">
                    <mxGeometry x="395" y="1061" width="60" height="30" as="geometry"/>
                </mxCell>
                <mxCell id="C2yQ0-Pam9OfuR78FbxI-118" value="1" style="text;html=1;strokeColor=none;fillColor=none;align=center;verticalAlign=middle;whiteSpace=wrap;rounded=0;fontSize=16;" parent="1" vertex="1">
                    <mxGeometry x="350" y="535" width="60" height="30" as="geometry"/>
                </mxCell>
                <mxCell id="C2yQ0-Pam9OfuR78FbxI-119" value="1" style="text;html=1;strokeColor=none;fillColor=none;align=center;verticalAlign=middle;whiteSpace=wrap;rounded=0;fontSize=16;" parent="1" vertex="1">
                    <mxGeometry x="510" y="467" width="60" height="30" as="geometry"/>
                </mxCell>
                <mxCell id="C2yQ0-Pam9OfuR78FbxI-120" value="1" style="text;html=1;strokeColor=none;fillColor=none;align=center;verticalAlign=middle;whiteSpace=wrap;rounded=0;fontSize=16;" parent="1" vertex="1">
                    <mxGeometry x="220" y="440" width="60" height="30" as="geometry"/>
                </mxCell>
                <mxCell id="C2yQ0-Pam9OfuR78FbxI-121" value="&lt;font style=&quot;font-size: 17px;&quot;&gt;n&lt;/font&gt;" style="text;html=1;strokeColor=none;fillColor=none;align=center;verticalAlign=middle;whiteSpace=wrap;rounded=0;fontSize=16;" parent="1" vertex="1">
                    <mxGeometry x="350" y="710" width="60" height="30" as="geometry"/>
                </mxCell>
                <mxCell id="C2yQ0-Pam9OfuR78FbxI-122" value="&lt;font style=&quot;font-size: 17px;&quot;&gt;n&lt;/font&gt;" style="text;html=1;strokeColor=none;fillColor=none;align=center;verticalAlign=middle;whiteSpace=wrap;rounded=0;fontSize=16;" parent="1" vertex="1">
                    <mxGeometry x="800" y="367" width="60" height="33" as="geometry"/>
                </mxCell>
                <mxCell id="C2yQ0-Pam9OfuR78FbxI-123" value="&lt;font style=&quot;font-size: 17px;&quot;&gt;n&lt;/font&gt;" style="text;html=1;strokeColor=none;fillColor=none;align=center;verticalAlign=middle;whiteSpace=wrap;rounded=0;fontSize=16;" parent="1" vertex="1">
                    <mxGeometry x="-30" y="347" width="60" height="30" as="geometry"/>
                </mxCell>
            </root>
        </mxGraphModel>
    </diagram>
</mxfile>